Coordinates
version=1
nRows=15
nColumns=34
inDegrees=yes

Units are S.I. units (second, meters, Newtons, ...)
If the header above contains a line with 'inDegrees', this indicates whether rotational values are in degrees (yes) or radians (no).

endheader
time	pelvis_tilt	pelvis_list	pelvis_rotation	pelvis_tx	pelvis_ty	pelvis_tz	hip_flexion_r	hip_adduction_r	hip_rotation_r	knee_angle_r	ankle_angle_r	subtalar_angle_r	mtp_angle_r	hip_flexion_l	hip_adduction_l	hip_rotation_l	knee_angle_l	ankle_angle_l	subtalar_angle_l	mtp_angle_l	lumbar_extension	lumbar_bending	lumbar_rotation	arm_flex_r	arm_add_r	arm_rot_r	elbow_flex_r	pro_sup_r	arm_flex_l	arm_add_l	arm_rot_l	elbow_flex_l	pro_sup_l
      2.48333330	    -30.23222274	      2.97109400	     -8.40391272	     -5.91930061	      0.80962136	     -0.99888312	     39.97128383	      2.96516738	     -4.45158197	     65.26482167	     37.67719622	    -17.10670150	      0.00000000	     27.85247044	     -0.62586326	     -7.34792234	     88.78152836	     15.13087580	    -19.33616389	      0.00000000	    -25.38677880	      7.73603212	      7.63632884	     23.69064391	     -8.15591902	     -2.15140318	     52.47053471	     96.00789933	      5.77581007	     -5.59879305	      4.70603607	     48.76829425	     94.24393751
      2.50000000	    -30.14137885	      2.97429340	     -7.16681678	     -5.89208166	      0.82106914	     -0.99548652	     35.11396027	      1.66416306	     -6.14123187	     60.24059481	     38.17409213	    -13.84270933	      0.00000000	     37.58420857	      0.44618844	     -4.74337549	    100.08091692	     22.20724744	    -16.18832131	      0.00000000	    -25.36035221	      8.02064520	     10.21945792	     29.01141489	     -8.84299720	     -3.48812879	     62.55517377	     99.02545737	     -0.99623156	     -6.80753970	     -1.88499468	     31.75679086	     92.83034826
      2.51666670	    -29.38543656	      2.97096831	     -6.21268358	     -5.86482939	      0.82997149	     -0.98957031	     29.17834760	      1.04027313	     -7.78511785	     54.14573436	     37.32513682	    -11.61607865	      0.00000000	     46.47205841	      1.80581551	     -2.17426931	    108.53314988	     27.86123435	    -12.91783317	      0.00000000	    -26.91954719	      7.85472640	     12.71944409	     34.20373679	     -9.52049771	     -6.03482134	     75.49278145	    115.86362884	     -5.69620227	     -9.65083006	    -10.28589124	     16.67115719	     82.12727839
      2.53333330	    -28.48040082	      3.34812196	     -6.29521727	     -5.84216237	      0.83351578	     -0.98142881	     23.74834884	      0.91450750	     -8.41058091	     48.49230409	     36.73940127	     -9.83286783	      0.00000000	     54.69777706	      2.82816290	     -0.54589166	    114.74693935	     31.76843069	     -9.23204993	      0.00000000	    -28.42807594	      5.96892089	     12.95722251	     43.10854947	     -9.92126536	     -2.16490273	     83.78072528	    116.36917348	    -11.80793416	    -13.41419691	    -10.12784183	      7.41127504	     80.53010580
      2.55000000	    -28.46313988	      4.60998736	     -6.84929899	     -5.82378847	      0.83332159	     -0.97243070	     20.18661410	      0.24848436	     -8.35767989	     43.65326680	     36.68393991	     -8.36456565	      0.00000000	     63.18684332	      3.94393745	      0.13233820	    119.16190538	     33.41990018	     -7.64315857	      0.00000000	    -28.48522957	      2.16968095	     12.95110550	     53.32914788	    -10.98535969	      1.16210664	     90.41239451	    116.21972139	    -19.67534106	    -15.95619351	     -7.59702872	      5.72067801	     79.15401127
      2.56666670	    -28.57631160	      5.78089949	     -7.77595048	     -5.80321793	      0.83194436	     -0.96327730	     16.98100776	     -0.01989741	     -7.60816610	     38.70276205	     37.72476554	     -6.51204775	      0.00000000	     71.08193303	      4.04970718	      0.43387610	    122.54401210	     33.60113453	     -8.63497739	      0.00000000	    -27.60425506	     -2.27549543	     13.35658542	     62.08843819	    -12.81455839	      1.77369111	     94.49384579	    113.16283050	    -29.85552095	    -17.41836817	     -0.08753567	     11.98906943	     75.39747943
      2.58333330	    -29.54392260	      6.86181373	     -8.00260673	     -5.77467728	      0.83243173	     -0.95670580	     13.92777188	     -0.50036787	     -7.90028459	     32.83429993	     37.48232709	     -4.65871596	      0.00000000	     79.48761167	      4.40252986	      0.82754736	    123.90448606	     32.76033208	    -10.04547214	      0.00000000	    -24.07215228	     -6.21946209	     17.86994793	     62.22878075	    -21.36320591	     -0.64117686	    104.10281180	    107.16095029	    -34.21188192	    -19.78414757	      5.06126945	     13.77772797	     67.58772601
      2.60000000	    -29.78801650	      7.19987356	     -8.41419099	     -5.74099796	      0.83667568	     -0.95150028	      8.78924316	     -0.16655601	     -7.59105665	     24.75813093	     35.15406735	     -2.72850986	      0.00000000	     85.84164014	      4.41356861	      1.39988431	    122.20997436	     31.10020602	    -11.23966511	      0.00000000	    -20.79378576	     -8.76457863	     23.53242923	     55.13046440	    -31.12378438	     -4.35184885	    115.31462118	    102.80813786	    -37.68147257	    -21.90697098	      5.15646765	     15.42847996	     61.15591037
      2.61666670	    -29.73898430	      7.82207110	     -8.56848211	     -5.70704143	      0.83982044	     -0.94695030	      3.06479768	     -0.40117933	     -7.87144701	     16.09902410	     28.76113060	     -1.65458456	      0.00000000	     89.44299965	      4.88246398	      0.92371000	    116.59333536	     28.89802050	    -11.81000104	      0.00000000	    -18.64685822	    -11.62400021	     27.78970775	     41.74671967	    -38.79108540	    -10.46467480	    126.97818643	    101.07671852	    -36.00116039	    -23.43098180	      3.73441286	     14.01692400	     57.84663334
      2.63333330	    -29.96911087	      8.26572174	     -8.42274041	     -5.67236890	      0.84212453	     -0.94217659	     -2.07289011	     -0.30842171	     -7.84798755	      8.25203876	     19.41051342	     -2.60630009	      0.00000000	     90.41845605	      5.33458957	     -0.00814727	    109.17115749	     28.58979950	    -11.02915750	      0.00000000	    -16.82531334	    -13.89414097	     30.34169936	     25.29392630	    -41.65716668	    -15.49012912	    133.35312822	    101.00690693	    -31.00007317	    -23.97308896	      4.48043049	     11.43405080	     56.61513244
      2.65000000	    -29.53785502	      8.42894193	     -8.01605933	     -5.63198685	      0.85038362	     -0.93721318	     -7.08526746	     -0.00134569	     -8.56990035	      2.81513516	      8.23470311	     -3.89727694	      0.00000000	     87.65865037	      5.94135748	     -1.22247092	    100.76567220	     28.72387175	    -10.05943299	      0.00000000	    -15.70211113	    -15.32569631	     30.55193994	     12.55679460	    -39.97747282	    -14.00843000	    129.26659037	    101.36205940	    -27.53211967	    -23.43736862	      6.55062785	      9.86666687	     56.81965129
      2.66666670	    -28.53893627	      9.05920993	     -7.83777724	     -5.58413512	      0.86541923	     -0.93155840	    -10.37336621	     -0.49398590	     -9.68723866	      3.22123236	     -2.12512456	     -6.19995450	      0.00000000	     81.71233048	      6.43932782	     -3.52425685	     91.19616861	     28.44520837	     -9.82493535	      0.00000000	    -15.78116036	    -17.04430415	     30.10213697	      2.97923536	    -35.94463409	    -11.41429904	    118.25002255	    101.20844305	    -24.99471535	    -22.88789877	      9.25986085	     10.67932263	     57.40686472
      2.68333330	    -26.48772738	      9.08706273	     -7.21829453	     -5.53267893	      0.87865055	     -0.92607862	    -11.88754774	     -0.47578071	     -7.77261002	     11.62542050	    -14.21120268	    -14.72772343	      0.00000000	     72.76296839	      7.29217515	     -5.63830840	     80.25442138	     26.86622631	    -10.75928700	      0.00000000	    -18.77070170	    -17.37401688	     25.64754540	      1.08731418	    -30.74497751	     -5.13828255	    102.39498752	    100.16020853	    -20.52134634	    -20.65924848	     13.39533464	     12.57405425	     58.31423148
      2.70000000	    -24.50574458	      8.08971147	     -6.11530705	     -5.48617609	      0.87926687	     -0.92142600	     -9.98426079	      0.89756465	     -6.19427134	     27.84737202	    -24.39911280	    -21.97824144	      0.00000000	     63.34462667	      7.40590632	     -7.58464474	     69.85268770	     25.15729429	    -12.38783449	      0.00000000	    -22.45513690	    -15.59629016	     18.53175685	      3.01688649	    -24.45828675	      2.52667729	     82.71525779	     98.57196969	    -14.29215298	    -17.23131563	     13.31791926	     19.08837558	     58.42086258
      2.71666670	    -22.96075195	      7.58268631	     -4.57740090	     -5.44925584	      0.86698440	     -0.91862073	     -4.82717938	      1.43813545	     -7.14383403	     48.33055684	    -25.02587543	    -22.39142066	      0.00000000	     55.20862406	      7.60898383	    -10.44049557	     61.89323452	     24.66923383	    -14.81624145	      0.00000000	    -24.42100745	    -13.57464864	     10.21021311	      4.66921292	    -18.88226422	     10.55513096	     61.92550231	     94.96796089	    -12.01879903	    -13.42310484	      0.66061656	     32.46236888	     60.89807405
